<svg t="1614606938589" class="icon" viewBox="0 0 1024 1024" version="1.1" xmlns="http://www.w3.org/2000/svg" p-id="2558" width="200" height="200">
	<path d="M512 125.1c-213.68 0-386.9 173.22-386.9 386.9 0 213.68 173.22 386.9 386.9 386.9S898.9 725.68 898.9 512c0-213.68-173.22-386.9-386.9-386.9zM662.7 512c0 17.17-13.92 31.08-31.08 31.08h-88.54v88.54c0 17.17-13.92 31.08-31.08 31.08-17.17 0-31.08-13.92-31.08-31.08v-88.54h-88.54c-17.16 0-31.08-13.92-31.08-31.08 0-17.17 13.92-31.08 31.08-31.08h88.54v-88.54c0-17.17 13.92-31.08 31.08-31.08 17.16 0 31.08 13.92 31.08 31.08v88.54h88.54c17.16 0 31.08 13.91 31.08 31.08z" p-id="2559" fill="#F34848">
	</path>
</svg>
