<svg t="1614582627997" class="icon" viewBox="0 0 1024 1024" version="1.1" xmlns="http://www.w3.org/2000/svg" p-id="1134" width="200" height="200">
	<path d="M768 0H256c-46.72 0-64 17.28-64 64v960l320-197.76L832 1024V64c0-46.72-17.28-64-64-64z m-49.92 272l-119.04 87.04 46.08 138.24c3.84 14.08-1.28 17.92-12.8 10.88L512 422.4l-120.32 85.76c-12.16 7.04-16 3.2-12.8-10.88l46.08-138.24L305.92 272c-10.88-10.24-8.96-14.72 5.76-14.72l147.2-1.92 44.8-138.24h16l44.8 138.24 147.2 1.92c14.72 0 17.28 5.12 5.76 14.72h0.64z" p-id="1135" fill="#181c2f65">
	</path>
</svg>
