<svg t="1614171591616" class="icon" viewBox="0 0 1024 1024" version="1.1"
    xmlns="http://www.w3.org/2000/svg" p-id="7080" width="90" height="90">
    <path d="M876.714004 443.106933c-15.185864 8.962116-16.918321 75.958996 68.511373 116.400057 0 0-121.010051 19.09694-197.716061-77.879742-19.029402 2.734274-38.562271 8.520047-58.666144 8.520047-164.821883 0-265.275759-94.943372-265.275759-213.682707 0-118.677936 100.453876-214.908628 265.275759-214.908628 164.78402 0 295.271934 96.230692 295.271934 214.908628C984.115106 343.756181 943.782515 403.699412 876.714004 443.106933M367.799272 297.749358c7.448646 131.354654 123.038244 241.36314 300.524564 252.411777 19.940145 0.783853 39.508829-4.055362 58.706053-7.016811 0 0 0-0.14224 0-0.220011l5.256724-1.329275c51.133587 52.648081 115.839285 62.635549 153.158239 63.530942-37.482683 143.472646-180.215478 249.116731-394.811997 249.116731-30.697139 0-60.610426-8.897647-89.571015-13.05534C283.898397 989.281267 99.167069 960.114994 99.167069 960.114994c130.48996-61.71048 127.841643-164.0411 104.712877-177.633676C101.360014 722.268958 39.883871 630.624724 39.883871 528.025998c0-154.445558 144.806014-283.627732 343.386768-318.564429C372.345822 237.182934 366.805642 266.943748 367.799272 297.749358" p-id="7081" fill="#ffffff"></path>
</svg>