<svg t="1614171223835" class="icon" viewBox="0 0 1243 1024" version="1.1"
    xmlns="http://www.w3.org/2000/svg" p-id="5936" width="90" height="90">
    <path d="M912.676571 782.774857L692.955429 696.32s-41.910857-16.457143-58.148572-32.548571c-10.459429-10.386286-9.728-34.889143-0.512-66.194286 9.289143-31.232 121.856-158.354286 121.856-273.846857 0-178.395429-116.077714-322.925714-259.364571-322.925715-143.213714 0-259.364571 144.530286-259.364572 322.925715 0 110.592 100.352 242.468571 112.64 266.459428 12.434286 23.917714 9.508571 60.416-0.292571 71.533715-14.701714 16.603429-68.388571 33.28-68.388572 33.28L83.309714 784.091429c-46.299429 16.822857-82.505143 60.854857-82.505143 110.518857v23.625143c0 54.198857 43.593143 87.405714 97.28 87.405714h799.817143c53.613714 0 97.28-33.206857 97.28-87.405714v-23.625143c0-49.664-36.278857-95.085714-82.505143-111.835429z m-38.034285-373.248c-22.893714 0-41.398857-11.702857-41.398857-36.498286 0-24.722286 18.505143-36.425143 41.398857-36.425142h290.889143c22.820571 0 40.082286 11.702857 40.082285 36.425142 0 24.795429-19.894857 36.498286-42.715428 36.498286h-288.256z m61.659428 167.131429c-22.820571 0-41.398857-11.702857-41.398857-36.498286 0-24.722286 18.578286-36.498286 41.398857-36.498286h229.814857c22.820571 0 38.765714 11.702857 38.765715 36.498286 0 24.795429-17.261714 36.498286-40.082286 36.498286H936.228571z m76.434286 157.330285c-22.893714 0-41.398857-11.702857-41.398857-36.425142 0-24.722286 18.505143-36.498286 41.398857-36.498286h154.038857c22.820571 0 40.009143 11.776 40.009143 36.571428 0 24.649143-18.505143 36.352-41.325714 36.352h-152.722286z" p-id="5937" fill="#ffffff"></path>
</svg>