<svg t="1614171395926" class="icon" viewBox="0 0 1024 1024" version="1.1"
    xmlns="http://www.w3.org/2000/svg" p-id="4439" width="90" height="90">
    <path d="M787.575467 864.9728l-216.285867-106.0864c-18.875733-9.454933-38.161067-19.490133-59.2896-19.490133-21.111467 0-39.8848 10.0352-58.658133 19.490133l-213.469867 106.0864v-676.010667a34.133333 34.133333 0 0 1 34.133333-34.133333h479.4368a34.133333 34.133333 0 0 1 34.133334 34.133333v676.010667zM750.933333 86.084267H273.066667c-56.541867 0-102.4 46.250667-102.4 103.2192v680.004266a68.608 68.608 0 0 0 68.266666 68.932267c10.1376 0 20.48-2.372267 30.498134-7.3216l227.328-114.517333c4.778667-2.4576 10.018133-3.652267 15.240533-3.652267 5.2224 0 10.461867 1.194667 15.2576 3.652267l227.310933 114.517333a67.293867 67.293867 0 0 0 30.498134 7.3216c35.84 0 68.266667-29.0304 68.266666-68.932267V189.303467c0-56.9856-45.8752-103.2192-102.4-103.2192z" p-id="4440" fill="#ffffff"></path>
    <path d="M648.533333 338.056533H375.466667c-22.613333 0-40.96-5.973333-40.96-34.133333 0-28.125867 18.346667-34.133333 40.96-34.133333h273.066666c22.613333 0 40.96 4.676267 40.96 34.133333 0 29.474133-18.346667 34.133333-40.96 34.133333zM648.533333 508.7232H375.466667c-22.613333 0-40.96-5.973333-40.96-34.133333 0-28.125867 18.346667-34.133333 40.96-34.133334h273.066666c22.613333 0 40.96 4.676267 40.96 34.133334 0 29.474133-18.346667 34.133333-40.96 34.133333z" p-id="4441" fill="#ffffff"></path>
</svg>